<?xml version="1.0" encoding="UTF-8" standalone="no"?>
<!DOCTYPE svg PUBLIC "-//W3C//DTD SVG 1.1//EN"
 "http://www.w3.org/Graphics/SVG/1.1/DTD/svg11.dtd">
<!-- Generated by graphviz version 2.40.1 (20161225.0304)
 -->
<!-- Title: dependencies Pages: 1 -->
<svg width="1349pt" height="284pt"
 viewBox="0.00 0.00 1349.00 284.00" xmlns="http://www.w3.org/2000/svg" xmlns:xlink="http://www.w3.org/1999/xlink">
<g id="graph0" class="graph" transform="scale(1 1) rotate(0) translate(4 280)">
<title>dependencies</title>
<polygon fill="#ffffff" stroke="transparent" points="-4,4 -4,-280 1345,-280 1345,4 -4,4"/>
<text text-anchor="start" x="649.5091" y="-42.4" font-family="sans-serif" font-weight="bold" font-size="14.00" fill="#000000">Legend</text>
<polygon fill="#ffffb3" stroke="transparent" points="436.5,-10 436.5,-30 456.5,-30 456.5,-10 436.5,-10"/>
<text text-anchor="start" x="460.129" y="-15.4" font-family="sans-serif" font-size="14.00" fill="#000000"> &#160;Declarations</text>
<polygon fill="#8dd3c7" stroke="transparent" points="549.5,-10 549.5,-30 569.5,-30 569.5,-10 549.5,-10"/>
<text text-anchor="start" x="573.2251" y="-15.4" font-family="sans-serif" font-size="14.00" fill="#000000"> &#160;Module</text>
<polygon fill="#80b1d3" stroke="transparent" points="635.5,-10 635.5,-30 655.5,-30 655.5,-10 635.5,-10"/>
<text text-anchor="start" x="659.2812" y="-15.4" font-family="sans-serif" font-size="14.00" fill="#000000"> &#160;Bootstrap</text>
<polygon fill="#fdb462" stroke="transparent" points="732.5,-10 732.5,-30 752.5,-30 752.5,-10 732.5,-10"/>
<text text-anchor="start" x="756.1732" y="-15.4" font-family="sans-serif" font-size="14.00" fill="#000000"> &#160;Providers</text>
<polygon fill="#fb8072" stroke="transparent" points="828.5,-10 828.5,-30 848.5,-30 848.5,-10 828.5,-10"/>
<text text-anchor="start" x="852.2258" y="-15.4" font-family="sans-serif" font-size="14.00" fill="#000000"> &#160;Exports</text>
<g id="clust1" class="cluster">
<title>cluster_AppModule</title>
<polygon fill="none" stroke="#000000" stroke-dasharray="1,5" points="8,-70 8,-268 1333,-268 1333,-70 8,-70"/>
</g>
<g id="clust2" class="cluster">
<title>cluster_AppModule_declarations</title>
<polygon fill="none" stroke="#000000" points="558,-78 558,-130 1325,-130 1325,-78 558,-78"/>
</g>
<g id="clust8" class="cluster">
<title>cluster_AppModule_imports</title>
<polygon fill="none" stroke="#000000" points="16,-78 16,-130 550,-130 550,-78 16,-78"/>
</g>
<g id="clust10" class="cluster">
<title>cluster_AppModule_bootstrap</title>
<polygon fill="none" stroke="#000000" points="580,-208 580,-260 704,-260 704,-208 580,-208"/>
</g>
<!-- AppComponent -->
<g id="node1" class="node">
<title>AppComponent</title>
<polygon fill="#ffffb3" stroke="#000000" points="1316.9399,-122 1211.0601,-122 1211.0601,-86 1316.9399,-86 1316.9399,-122"/>
<text text-anchor="middle" x="1264" y="-99.8" font-family="Times,serif" font-size="14.00" fill="#000000">AppComponent</text>
</g>
<!-- AppModule -->
<g id="node6" class="node">
<title>AppModule</title>
<polygon fill="#8dd3c7" stroke="#000000" points="683.6571,-187 680.6571,-191 659.6571,-191 656.6571,-187 600.3429,-187 600.3429,-151 683.6571,-151 683.6571,-187"/>
<text text-anchor="middle" x="642" y="-164.8" font-family="Times,serif" font-size="14.00" fill="#000000">AppModule</text>
</g>
<!-- AppComponent&#45;&gt;AppModule -->
<g id="edge1" class="edge">
<title>AppComponent&#45;&gt;AppModule</title>
<path fill="none" stroke="#000000" d="M1264,-122.0109C1264,-144.4852 1264,-180 1264,-180 1264,-180 693.777,-180 693.777,-180"/>
<polygon fill="#000000" stroke="#000000" points="693.777,-176.5001 683.777,-180 693.777,-183.5001 693.777,-176.5001"/>
</g>
<!-- MenuComponent -->
<g id="node2" class="node">
<title>MenuComponent</title>
<polygon fill="#ffffb3" stroke="#000000" points="1192.9916,-122 1079.0084,-122 1079.0084,-86 1192.9916,-86 1192.9916,-122"/>
<text text-anchor="middle" x="1136" y="-99.8" font-family="Times,serif" font-size="14.00" fill="#000000">MenuComponent</text>
</g>
<!-- MenuComponent&#45;&gt;AppModule -->
<g id="edge2" class="edge">
<title>MenuComponent&#45;&gt;AppModule</title>
<path fill="none" stroke="#000000" d="M1136,-122.1289C1136,-142.5724 1136,-173 1136,-173 1136,-173 693.6924,-173 693.6924,-173"/>
<polygon fill="#000000" stroke="#000000" points="693.6924,-169.5001 683.6924,-173 693.6924,-176.5001 693.6924,-169.5001"/>
</g>
<!-- AutocompleteComponent -->
<g id="node3" class="node">
<title>AutocompleteComponent</title>
<polygon fill="#ffffb3" stroke="#000000" points="1061.1456,-122 900.8544,-122 900.8544,-86 1061.1456,-86 1061.1456,-122"/>
<text text-anchor="middle" x="981" y="-99.8" font-family="Times,serif" font-size="14.00" fill="#000000">AutocompleteComponent</text>
</g>
<!-- AutocompleteComponent&#45;&gt;AppModule -->
<g id="edge3" class="edge">
<title>AutocompleteComponent&#45;&gt;AppModule</title>
<path fill="none" stroke="#000000" d="M981,-122.2667C981,-140.5552 981,-166 981,-166 981,-166 693.9081,-166 693.9081,-166"/>
<polygon fill="#000000" stroke="#000000" points="693.9081,-162.5001 683.9081,-166 693.908,-169.5001 693.9081,-162.5001"/>
</g>
<!-- SearchPageComponent -->
<g id="node4" class="node">
<title>SearchPageComponent</title>
<polygon fill="#ffffb3" stroke="#000000" points="882.1317,-122 735.8683,-122 735.8683,-86 882.1317,-86 882.1317,-122"/>
<text text-anchor="middle" x="809" y="-99.8" font-family="Times,serif" font-size="14.00" fill="#000000">SearchPageComponent</text>
</g>
<!-- SearchPageComponent&#45;&gt;AppModule -->
<g id="edge4" class="edge">
<title>SearchPageComponent&#45;&gt;AppModule</title>
<path fill="none" stroke="#000000" d="M809,-122.0091C809,-138.0494 809,-159 809,-159 809,-159 693.7104,-159 693.7104,-159"/>
<polygon fill="#000000" stroke="#000000" points="693.7104,-155.5001 683.7104,-159 693.7103,-162.5001 693.7104,-155.5001"/>
</g>
<!-- ContactPageComponent -->
<g id="node5" class="node">
<title>ContactPageComponent</title>
<polygon fill="#ffffb3" stroke="#000000" points="718.0912,-122 565.9088,-122 565.9088,-86 718.0912,-86 718.0912,-122"/>
<text text-anchor="middle" x="642" y="-99.8" font-family="Times,serif" font-size="14.00" fill="#000000">ContactPageComponent</text>
</g>
<!-- ContactPageComponent&#45;&gt;AppModule -->
<g id="edge5" class="edge">
<title>ContactPageComponent&#45;&gt;AppModule</title>
<path fill="none" stroke="#000000" d="M642,-122.1061C642,-122.1061 642,-140.991 642,-140.991"/>
<polygon fill="#000000" stroke="#000000" points="638.5001,-140.9909 642,-150.991 645.5001,-140.991 638.5001,-140.9909"/>
</g>
<!-- AppComponent  -->
<g id="node11" class="node">
<title>AppComponent </title>
<polygon fill="#80b1d3" stroke="#000000" points="696.439,-252 587.561,-252 587.561,-216 696.439,-216 696.439,-252"/>
<text text-anchor="middle" x="642" y="-229.8" font-family="Times,serif" font-size="14.00" fill="#000000">AppComponent </text>
</g>
<!-- AppModule&#45;&gt;AppComponent  -->
<g id="edge10" class="edge">
<title>AppModule&#45;&gt;AppComponent </title>
<path fill="none" stroke="#000000" stroke-dasharray="1,5" d="M642,-187.1061C642,-187.1061 642,-205.991 642,-205.991"/>
<polygon fill="#000000" stroke="#000000" points="638.5001,-205.9909 642,-215.991 645.5001,-205.991 638.5001,-205.9909"/>
</g>
<!-- BrowserModule -->
<g id="node7" class="node">
<title>BrowserModule</title>
<polygon fill="#8dd3c7" stroke="#000000" points="542.4734,-122 539.4734,-126 518.4734,-126 515.4734,-122 435.5266,-122 435.5266,-86 542.4734,-86 542.4734,-122"/>
<text text-anchor="middle" x="489" y="-99.8" font-family="Times,serif" font-size="14.00" fill="#000000">BrowserModule</text>
</g>
<!-- BrowserModule&#45;&gt;AppModule -->
<g id="edge6" class="edge">
<title>BrowserModule&#45;&gt;AppModule</title>
<path fill="none" stroke="#000000" d="M489,-122.0091C489,-138.0494 489,-159 489,-159 489,-159 590.1921,-159 590.1921,-159"/>
<polygon fill="#000000" stroke="#000000" points="590.1921,-162.5001 600.1921,-159 590.192,-155.5001 590.1921,-162.5001"/>
</g>
<!-- FormsModule -->
<g id="node8" class="node">
<title>FormsModule</title>
<polygon fill="#8dd3c7" stroke="#000000" points="417.8288,-122 414.8288,-126 393.8288,-126 390.8288,-122 322.1712,-122 322.1712,-86 417.8288,-86 417.8288,-122"/>
<text text-anchor="middle" x="370" y="-99.8" font-family="Times,serif" font-size="14.00" fill="#000000">FormsModule</text>
</g>
<!-- FormsModule&#45;&gt;AppModule -->
<g id="edge7" class="edge">
<title>FormsModule&#45;&gt;AppModule</title>
<path fill="none" stroke="#000000" d="M370,-122.2667C370,-140.5552 370,-166 370,-166 370,-166 590.0961,-166 590.0961,-166"/>
<polygon fill="#000000" stroke="#000000" points="590.0961,-169.5001 600.0961,-166 590.0961,-162.5001 590.0961,-169.5001"/>
</g>
<!-- HttpModule -->
<g id="node9" class="node">
<title>HttpModule</title>
<polygon fill="#8dd3c7" stroke="#000000" points="304.4387,-122 301.4387,-126 280.4387,-126 277.4387,-122 219.5613,-122 219.5613,-86 304.4387,-86 304.4387,-122"/>
<text text-anchor="middle" x="262" y="-99.8" font-family="Times,serif" font-size="14.00" fill="#000000">HttpModule</text>
</g>
<!-- HttpModule&#45;&gt;AppModule -->
<g id="edge8" class="edge">
<title>HttpModule&#45;&gt;AppModule</title>
<path fill="none" stroke="#000000" d="M262,-122.1289C262,-142.5724 262,-173 262,-173 262,-173 590.2463,-173 590.2463,-173"/>
<polygon fill="#000000" stroke="#000000" points="590.2464,-176.5001 600.2463,-173 590.2463,-169.5001 590.2464,-176.5001"/>
</g>
<!-- RouterModule.forRoot(args) -->
<g id="node10" class="node">
<title>RouterModule.forRoot(args)</title>
<polygon fill="#8dd3c7" stroke="#000000" points="201.8419,-122 198.8419,-126 177.8419,-126 174.8419,-122 24.1581,-122 24.1581,-86 201.8419,-86 201.8419,-122"/>
<text text-anchor="middle" x="113" y="-99.8" font-family="Times,serif" font-size="14.00" fill="#000000">RouterModule.forRoot(args)</text>
</g>
<!-- RouterModule.forRoot(args)&#45;&gt;AppModule -->
<g id="edge9" class="edge">
<title>RouterModule.forRoot(args)&#45;&gt;AppModule</title>
<path fill="none" stroke="#000000" d="M113,-122.0109C113,-144.4852 113,-180 113,-180 113,-180 590.0481,-180 590.0481,-180"/>
<polygon fill="#000000" stroke="#000000" points="590.0481,-183.5001 600.0481,-180 590.0481,-176.5001 590.0481,-183.5001"/>
</g>
</g>
</svg>
