<?xml version="1.0" encoding="UTF-8" standalone="no"?>
<!DOCTYPE svg PUBLIC "-//W3C//DTD SVG 1.1//EN"
 "http://www.w3.org/Graphics/SVG/1.1/DTD/svg11.dtd">
<!-- Generated by graphviz version 2.40.1 (20161225.0304)
 -->
<!-- Title: dependencies Pages: 1 -->
<svg width="1737pt" height="284pt"
 viewBox="0.00 0.00 1737.00 284.00" xmlns="http://www.w3.org/2000/svg" xmlns:xlink="http://www.w3.org/1999/xlink">
<g id="graph0" class="graph" transform="scale(1 1) rotate(0) translate(4 280)">
<title>dependencies</title>
<polygon fill="#ffffff" stroke="transparent" points="-4,4 -4,-280 1733,-280 1733,4 -4,4"/>
<text text-anchor="start" x="843.5091" y="-42.4" font-family="sans-serif" font-weight="bold" font-size="14.00" fill="#000000">Legend</text>
<polygon fill="#ffffb3" stroke="transparent" points="630.5,-10 630.5,-30 650.5,-30 650.5,-10 630.5,-10"/>
<text text-anchor="start" x="654.129" y="-15.4" font-family="sans-serif" font-size="14.00" fill="#000000"> &#160;Declarations</text>
<polygon fill="#8dd3c7" stroke="transparent" points="743.5,-10 743.5,-30 763.5,-30 763.5,-10 743.5,-10"/>
<text text-anchor="start" x="767.2251" y="-15.4" font-family="sans-serif" font-size="14.00" fill="#000000"> &#160;Module</text>
<polygon fill="#80b1d3" stroke="transparent" points="829.5,-10 829.5,-30 849.5,-30 849.5,-10 829.5,-10"/>
<text text-anchor="start" x="853.2812" y="-15.4" font-family="sans-serif" font-size="14.00" fill="#000000"> &#160;Bootstrap</text>
<polygon fill="#fdb462" stroke="transparent" points="926.5,-10 926.5,-30 946.5,-30 946.5,-10 926.5,-10"/>
<text text-anchor="start" x="950.1732" y="-15.4" font-family="sans-serif" font-size="14.00" fill="#000000"> &#160;Providers</text>
<polygon fill="#fb8072" stroke="transparent" points="1022.5,-10 1022.5,-30 1042.5,-30 1042.5,-10 1022.5,-10"/>
<text text-anchor="start" x="1046.2258" y="-15.4" font-family="sans-serif" font-size="14.00" fill="#000000"> &#160;Exports</text>
<g id="clust1" class="cluster">
<title>cluster_AppModule</title>
<polygon fill="none" stroke="#000000" stroke-dasharray="1,5" points="8,-70 8,-268 1721,-268 1721,-70 8,-70"/>
</g>
<g id="clust3" class="cluster">
<title>cluster_AppModule_imports</title>
<polygon fill="none" stroke="#000000" points="16,-78 16,-130 1713,-130 1713,-78 16,-78"/>
</g>
<g id="clust5" class="cluster">
<title>cluster_AppModule_bootstrap</title>
<polygon fill="none" stroke="#000000" points="709,-208 709,-260 833,-260 833,-208 709,-208"/>
</g>
<!-- BrowserModule -->
<g id="node1" class="node">
<title>BrowserModule</title>
<polygon fill="#8dd3c7" stroke="#000000" points="1705.4734,-122 1702.4734,-126 1681.4734,-126 1678.4734,-122 1598.5266,-122 1598.5266,-86 1705.4734,-86 1705.4734,-122"/>
<text text-anchor="middle" x="1652" y="-99.8" font-family="Times,serif" font-size="14.00" fill="#000000">BrowserModule</text>
</g>
<!-- AppModule -->
<g id="node10" class="node">
<title>AppModule</title>
<polygon fill="#8dd3c7" stroke="#000000" points="812.6571,-187 809.6571,-191 788.6571,-191 785.6571,-187 729.3429,-187 729.3429,-151 812.6571,-151 812.6571,-187"/>
<text text-anchor="middle" x="771" y="-164.8" font-family="Times,serif" font-size="14.00" fill="#000000">AppModule</text>
</g>
<!-- BrowserModule&#45;&gt;AppModule -->
<g id="edge1" class="edge">
<title>BrowserModule&#45;&gt;AppModule</title>
<path fill="none" stroke="#000000" d="M1652,-122.0109C1652,-144.4852 1652,-180 1652,-180 1652,-180 822.8998,-180 822.8998,-180"/>
<polygon fill="#000000" stroke="#000000" points="822.8998,-176.5001 812.8998,-180 822.8997,-183.5001 822.8998,-176.5001"/>
</g>
<!-- ReactiveFormsModule -->
<g id="node2" class="node">
<title>ReactiveFormsModule</title>
<polygon fill="#8dd3c7" stroke="#000000" points="1580.3047,-122 1577.3047,-126 1556.3047,-126 1553.3047,-122 1435.6953,-122 1435.6953,-86 1580.3047,-86 1580.3047,-122"/>
<text text-anchor="middle" x="1508" y="-99.8" font-family="Times,serif" font-size="14.00" fill="#000000">ReactiveFormsModule</text>
</g>
<!-- ReactiveFormsModule&#45;&gt;AppModule -->
<g id="edge2" class="edge">
<title>ReactiveFormsModule&#45;&gt;AppModule</title>
<path fill="none" stroke="#000000" d="M1508,-122.1289C1508,-142.5724 1508,-173 1508,-173 1508,-173 822.736,-173 822.736,-173"/>
<polygon fill="#000000" stroke="#000000" points="822.736,-169.5001 812.736,-173 822.7359,-176.5001 822.736,-169.5001"/>
</g>
<!-- StoreModule.provideStore(args) -->
<g id="node3" class="node">
<title>StoreModule.provideStore(args)</title>
<polygon fill="#8dd3c7" stroke="#000000" points="1417.5539,-122 1414.5539,-126 1393.5539,-126 1390.5539,-122 1220.4461,-122 1220.4461,-86 1417.5539,-86 1417.5539,-122"/>
<text text-anchor="middle" x="1319" y="-99.8" font-family="Times,serif" font-size="14.00" fill="#000000">StoreModule.provideStore(args)</text>
</g>
<!-- StoreModule.provideStore(args)&#45;&gt;AppModule -->
<g id="edge3" class="edge">
<title>StoreModule.provideStore(args)&#45;&gt;AppModule</title>
<path fill="none" stroke="#000000" d="M1319,-122.2667C1319,-140.5552 1319,-166 1319,-166 1319,-166 823.0907,-166 823.0907,-166"/>
<polygon fill="#000000" stroke="#000000" points="823.0907,-162.5001 813.0907,-166 823.0907,-169.5001 823.0907,-162.5001"/>
</g>
<!-- StoreDevtoolsModule.instrumentOnlyWithExtension() -->
<g id="node4" class="node">
<title>StoreDevtoolsModule.instrumentOnlyWithExtension()</title>
<polygon fill="#8dd3c7" stroke="#000000" points="1202.3348,-122 1199.3348,-126 1178.3348,-126 1175.3348,-122 877.6652,-122 877.6652,-86 1202.3348,-86 1202.3348,-122"/>
<text text-anchor="middle" x="1040" y="-99.8" font-family="Times,serif" font-size="14.00" fill="#000000">StoreDevtoolsModule.instrumentOnlyWithExtension()</text>
</g>
<!-- StoreDevtoolsModule.instrumentOnlyWithExtension()&#45;&gt;AppModule -->
<g id="edge4" class="edge">
<title>StoreDevtoolsModule.instrumentOnlyWithExtension()&#45;&gt;AppModule</title>
<path fill="none" stroke="#000000" d="M1040,-122.0091C1040,-138.0494 1040,-159 1040,-159 1040,-159 822.7361,-159 822.7361,-159"/>
<polygon fill="#000000" stroke="#000000" points="822.7361,-155.5001 812.7361,-159 822.7361,-162.5001 822.7361,-155.5001"/>
</g>
<!-- RouterModule.forRoot(args) -->
<g id="node5" class="node">
<title>RouterModule.forRoot(args)</title>
<polygon fill="#8dd3c7" stroke="#000000" points="859.8419,-122 856.8419,-126 835.8419,-126 832.8419,-122 682.1581,-122 682.1581,-86 859.8419,-86 859.8419,-122"/>
<text text-anchor="middle" x="771" y="-99.8" font-family="Times,serif" font-size="14.00" fill="#000000">RouterModule.forRoot(args)</text>
</g>
<!-- RouterModule.forRoot(args)&#45;&gt;AppModule -->
<g id="edge5" class="edge">
<title>RouterModule.forRoot(args)&#45;&gt;AppModule</title>
<path fill="none" stroke="#000000" d="M771,-122.1061C771,-122.1061 771,-140.991 771,-140.991"/>
<polygon fill="#000000" stroke="#000000" points="767.5001,-140.9909 771,-150.991 774.5001,-140.991 767.5001,-140.9909"/>
</g>
<!-- RouterStoreModule.connectRouter() -->
<g id="node6" class="node">
<title>RouterStoreModule.connectRouter()</title>
<polygon fill="#8dd3c7" stroke="#000000" points="663.6589,-122 660.6589,-126 639.6589,-126 636.6589,-122 442.3411,-122 442.3411,-86 663.6589,-86 663.6589,-122"/>
<text text-anchor="middle" x="553" y="-99.8" font-family="Times,serif" font-size="14.00" fill="#000000">RouterStoreModule.connectRouter()</text>
</g>
<!-- RouterStoreModule.connectRouter()&#45;&gt;AppModule -->
<g id="edge6" class="edge">
<title>RouterStoreModule.connectRouter()&#45;&gt;AppModule</title>
<path fill="none" stroke="#000000" d="M553,-122.0091C553,-138.0494 553,-159 553,-159 553,-159 719.2253,-159 719.2253,-159"/>
<polygon fill="#000000" stroke="#000000" points="719.2254,-162.5001 729.2253,-159 719.2253,-155.5001 719.2254,-162.5001"/>
</g>
<!-- JsonpModule -->
<g id="node7" class="node">
<title>JsonpModule</title>
<polygon fill="#8dd3c7" stroke="#000000" points="423.9401,-122 420.9401,-126 399.9401,-126 396.9401,-122 332.0599,-122 332.0599,-86 423.9401,-86 423.9401,-122"/>
<text text-anchor="middle" x="378" y="-99.8" font-family="Times,serif" font-size="14.00" fill="#000000">JsonpModule</text>
</g>
<!-- JsonpModule&#45;&gt;AppModule -->
<g id="edge7" class="edge">
<title>JsonpModule&#45;&gt;AppModule</title>
<path fill="none" stroke="#000000" d="M378,-122.2667C378,-140.5552 378,-166 378,-166 378,-166 719.3142,-166 719.3142,-166"/>
<polygon fill="#000000" stroke="#000000" points="719.3142,-169.5001 729.3142,-166 719.3141,-162.5001 719.3142,-169.5001"/>
</g>
<!-- HttpClientModule -->
<g id="node8" class="node">
<title>HttpClientModule</title>
<polygon fill="#8dd3c7" stroke="#000000" points="314.1611,-122 311.1611,-126 290.1611,-126 287.1611,-122 195.8389,-122 195.8389,-86 314.1611,-86 314.1611,-122"/>
<text text-anchor="middle" x="255" y="-99.8" font-family="Times,serif" font-size="14.00" fill="#000000">HttpClientModule</text>
</g>
<!-- HttpClientModule&#45;&gt;AppModule -->
<g id="edge8" class="edge">
<title>HttpClientModule&#45;&gt;AppModule</title>
<path fill="none" stroke="#000000" d="M255,-122.1289C255,-142.5724 255,-173 255,-173 255,-173 719.2106,-173 719.2106,-173"/>
<polygon fill="#000000" stroke="#000000" points="719.2107,-176.5001 729.2106,-173 719.2106,-169.5001 719.2107,-176.5001"/>
</g>
<!-- EffectsModule.run(args) -->
<g id="node9" class="node">
<title>EffectsModule.run(args)</title>
<polygon fill="#8dd3c7" stroke="#000000" points="177.9896,-122 174.9896,-126 153.9896,-126 150.9896,-122 24.0104,-122 24.0104,-86 177.9896,-86 177.9896,-122"/>
<text text-anchor="middle" x="101" y="-99.8" font-family="Times,serif" font-size="14.00" fill="#000000">EffectsModule.run(args)</text>
</g>
<!-- EffectsModule.run(args)&#45;&gt;AppModule -->
<g id="edge9" class="edge">
<title>EffectsModule.run(args)&#45;&gt;AppModule</title>
<path fill="none" stroke="#000000" d="M101,-122.0109C101,-144.4852 101,-180 101,-180 101,-180 719.3416,-180 719.3416,-180"/>
<polygon fill="#000000" stroke="#000000" points="719.3417,-183.5001 729.3416,-180 719.3416,-176.5001 719.3417,-183.5001"/>
</g>
<!-- AppComponent  -->
<g id="node11" class="node">
<title>AppComponent </title>
<polygon fill="#80b1d3" stroke="#000000" points="825.439,-252 716.561,-252 716.561,-216 825.439,-216 825.439,-252"/>
<text text-anchor="middle" x="771" y="-229.8" font-family="Times,serif" font-size="14.00" fill="#000000">AppComponent </text>
</g>
<!-- AppModule&#45;&gt;AppComponent  -->
<g id="edge10" class="edge">
<title>AppModule&#45;&gt;AppComponent </title>
<path fill="none" stroke="#000000" stroke-dasharray="1,5" d="M771,-187.1061C771,-187.1061 771,-205.991 771,-205.991"/>
<polygon fill="#000000" stroke="#000000" points="767.5001,-205.9909 771,-215.991 774.5001,-205.991 767.5001,-205.9909"/>
</g>
</g>
</svg>
