<?xml version="1.0" encoding="UTF-8" standalone="no"?>
<!DOCTYPE svg PUBLIC "-//W3C//DTD SVG 1.1//EN"
 "http://www.w3.org/Graphics/SVG/1.1/DTD/svg11.dtd">
<!-- Generated by graphviz version 2.40.1 (20161225.0304)
 -->
<!-- Title: dependencies Pages: 1 -->
<svg width="574pt" height="284pt"
 viewBox="0.00 0.00 574.00 284.00" xmlns="http://www.w3.org/2000/svg" xmlns:xlink="http://www.w3.org/1999/xlink">
<g id="graph0" class="graph" transform="scale(1 1) rotate(0) translate(4 280)">
<title>dependencies</title>
<polygon fill="#ffffff" stroke="transparent" points="-4,4 -4,-280 570,-280 570,4 -4,4"/>
<text text-anchor="start" x="262.0091" y="-42.4" font-family="sans-serif" font-weight="bold" font-size="14.00" fill="#000000">Legend</text>
<polygon fill="#ffffb3" stroke="transparent" points="49,-10 49,-30 69,-30 69,-10 49,-10"/>
<text text-anchor="start" x="72.629" y="-15.4" font-family="sans-serif" font-size="14.00" fill="#000000"> &#160;Declarations</text>
<polygon fill="#8dd3c7" stroke="transparent" points="162,-10 162,-30 182,-30 182,-10 162,-10"/>
<text text-anchor="start" x="185.7251" y="-15.4" font-family="sans-serif" font-size="14.00" fill="#000000"> &#160;Module</text>
<polygon fill="#80b1d3" stroke="transparent" points="248,-10 248,-30 268,-30 268,-10 248,-10"/>
<text text-anchor="start" x="271.7812" y="-15.4" font-family="sans-serif" font-size="14.00" fill="#000000"> &#160;Bootstrap</text>
<polygon fill="#fdb462" stroke="transparent" points="345,-10 345,-30 365,-30 365,-10 345,-10"/>
<text text-anchor="start" x="368.6732" y="-15.4" font-family="sans-serif" font-size="14.00" fill="#000000"> &#160;Providers</text>
<polygon fill="#fb8072" stroke="transparent" points="441,-10 441,-30 461,-30 461,-10 441,-10"/>
<text text-anchor="start" x="464.7258" y="-15.4" font-family="sans-serif" font-size="14.00" fill="#000000"> &#160;Exports</text>
<g id="clust1" class="cluster">
<title>cluster_AppModule</title>
<polygon fill="none" stroke="#000000" stroke-dasharray="1,5" points="8,-70 8,-268 558,-268 558,-70 8,-70"/>
</g>
<g id="clust3" class="cluster">
<title>cluster_AppModule_imports</title>
<polygon fill="none" stroke="#000000" points="16,-78 16,-130 550,-130 550,-78 16,-78"/>
</g>
<g id="clust5" class="cluster">
<title>cluster_AppModule_bootstrap</title>
<polygon fill="none" stroke="#000000" points="254,-208 254,-260 378,-260 378,-208 254,-208"/>
</g>
<!-- BrowserModule -->
<g id="node1" class="node">
<title>BrowserModule</title>
<polygon fill="#8dd3c7" stroke="#000000" points="542.4734,-122 539.4734,-126 518.4734,-126 515.4734,-122 435.5266,-122 435.5266,-86 542.4734,-86 542.4734,-122"/>
<text text-anchor="middle" x="489" y="-99.8" font-family="Times,serif" font-size="14.00" fill="#000000">BrowserModule</text>
</g>
<!-- AppModule -->
<g id="node5" class="node">
<title>AppModule</title>
<polygon fill="#8dd3c7" stroke="#000000" points="357.6571,-187 354.6571,-191 333.6571,-191 330.6571,-187 274.3429,-187 274.3429,-151 357.6571,-151 357.6571,-187"/>
<text text-anchor="middle" x="316" y="-164.8" font-family="Times,serif" font-size="14.00" fill="#000000">AppModule</text>
</g>
<!-- BrowserModule&#45;&gt;AppModule -->
<g id="edge1" class="edge">
<title>BrowserModule&#45;&gt;AppModule</title>
<path fill="none" stroke="#000000" d="M489,-122.1061C489,-141.3391 489,-169 489,-169 489,-169 367.8785,-169 367.8785,-169"/>
<polygon fill="#000000" stroke="#000000" points="367.8785,-165.5001 357.8785,-169 367.8784,-172.5001 367.8785,-165.5001"/>
</g>
<!-- FormsModule -->
<g id="node2" class="node">
<title>FormsModule</title>
<polygon fill="#8dd3c7" stroke="#000000" points="417.8288,-122 414.8288,-126 393.8288,-126 390.8288,-122 322.1712,-122 322.1712,-86 417.8288,-86 417.8288,-122"/>
<text text-anchor="middle" x="370" y="-99.8" font-family="Times,serif" font-size="14.00" fill="#000000">FormsModule</text>
</g>
<!-- FormsModule&#45;&gt;AppModule -->
<g id="edge2" class="edge">
<title>FormsModule&#45;&gt;AppModule</title>
<path fill="none" stroke="#000000" d="M340.0821,-122.1061C340.0821,-122.1061 340.0821,-140.991 340.0821,-140.991"/>
<polygon fill="#000000" stroke="#000000" points="336.5821,-140.9909 340.0821,-150.991 343.5821,-140.991 336.5821,-140.9909"/>
</g>
<!-- HttpModule -->
<g id="node3" class="node">
<title>HttpModule</title>
<polygon fill="#8dd3c7" stroke="#000000" points="304.4387,-122 301.4387,-126 280.4387,-126 277.4387,-122 219.5613,-122 219.5613,-86 304.4387,-86 304.4387,-122"/>
<text text-anchor="middle" x="262" y="-99.8" font-family="Times,serif" font-size="14.00" fill="#000000">HttpModule</text>
</g>
<!-- HttpModule&#45;&gt;AppModule -->
<g id="edge3" class="edge">
<title>HttpModule&#45;&gt;AppModule</title>
<path fill="none" stroke="#000000" d="M289.1953,-122.1061C289.1953,-122.1061 289.1953,-140.991 289.1953,-140.991"/>
<polygon fill="#000000" stroke="#000000" points="285.6954,-140.9909 289.1953,-150.991 292.6954,-140.991 285.6954,-140.9909"/>
</g>
<!-- RouterModule.forRoot(args) -->
<g id="node4" class="node">
<title>RouterModule.forRoot(args)</title>
<polygon fill="#8dd3c7" stroke="#000000" points="201.8419,-122 198.8419,-126 177.8419,-126 174.8419,-122 24.1581,-122 24.1581,-86 201.8419,-86 201.8419,-122"/>
<text text-anchor="middle" x="113" y="-99.8" font-family="Times,serif" font-size="14.00" fill="#000000">RouterModule.forRoot(args)</text>
</g>
<!-- RouterModule.forRoot(args)&#45;&gt;AppModule -->
<g id="edge4" class="edge">
<title>RouterModule.forRoot(args)&#45;&gt;AppModule</title>
<path fill="none" stroke="#000000" d="M113,-122.1061C113,-141.3391 113,-169 113,-169 113,-169 263.9383,-169 263.9383,-169"/>
<polygon fill="#000000" stroke="#000000" points="263.9383,-172.5001 273.9383,-169 263.9382,-165.5001 263.9383,-172.5001"/>
</g>
<!-- AppComponent  -->
<g id="node6" class="node">
<title>AppComponent </title>
<polygon fill="#80b1d3" stroke="#000000" points="370.439,-252 261.561,-252 261.561,-216 370.439,-216 370.439,-252"/>
<text text-anchor="middle" x="316" y="-229.8" font-family="Times,serif" font-size="14.00" fill="#000000">AppComponent </text>
</g>
<!-- AppModule&#45;&gt;AppComponent  -->
<g id="edge5" class="edge">
<title>AppModule&#45;&gt;AppComponent </title>
<path fill="none" stroke="#000000" stroke-dasharray="1,5" d="M316,-187.1061C316,-187.1061 316,-205.991 316,-205.991"/>
<polygon fill="#000000" stroke="#000000" points="312.5001,-205.9909 316,-215.991 319.5001,-205.991 312.5001,-205.9909"/>
</g>
</g>
</svg>
